<svg xmlns="http://www.w3.org/2000/svg"
 version="1.1" xmlns:xlink="http://www.w3.org/1999/xlink"
  xmlns:svgjs="http://svgjs.com/svgjs" 
  width="512" height="512" x="0" y="0" 
  viewBox="0 0 64 64" 
  style="enable-background:new 0 0 512 512" 
  xml:space="preserve" class="">
  <g>
  <path 
  d="m63 7.995h-62v-2c0-1.1.89-2 2-2h58c1.11 0 2 .9 2 2z" 
  fill="#ccd1d9" 
  data-original="#ccd1d9"
   class=""></path><path 
   d="m5 11.995h50v4h-50z" 
   fill="#ffffff" 
   data-original="#ffffff" 
   class="">
   </path>
   <path d="m55 11.995h4v4h-4z" 
   fill="#5d9cec" 
   data-original="#5d9cec">
   </path><g fill="#fff">
   <path d="m5 20.005h25v16h-25z"
    fill="#ffffff" data-original="#ffffff" class=""></path><path d="m5 40.005h25v15.99h-25z" fill="#ffffff" data-original="#ffffff" class=""></path><path d="m34 20.005h25v16h-25z" fill="#ffffff" data-original="#ffffff" class=""></path><path d="m34 40.005h25v15.99h-25z" fill="#ffffff" data-original="#ffffff" class=""></path></g><path d="m63 7.995v52.01h-62v-52.01zm-4 48v-15.99h-25v15.99zm0-19.99v-16h-25v16zm0-20.01v-4h-4-50v4h50zm-29 40v-15.99h-25v15.99zm0-19.99v-16h-25v16z" fill="#e6e9ed" data-original="#e6e9ed" class=""></path><path d="m1 6.998c-.553 0-1-.447-1-1 0-1.654 1.346-3 3-3 .553 0 1 .447 1 1s-.447 1-1 1c-.552 0-1 .448-1 1 0 .553-.447 1-1 1z" fill="#000000" data-original="#000000" class=""></path><path d="m63 6.998c-.553 0-1-.447-1-1 0-.552-.448-1-1-1-.553 0-1-.447-1-1s.447-1 1-1c1.654 0 3 1.346 3 3 0 .553-.447 1-1 1z" fill="#000000" data-original="#000000" class=""></path><path d="m61 4.998h-58c-.553 0-1-.447-1-1s.447-1 1-1h58c.553 0 1 .447 1 1s-.447 1-1 1z" fill="#000000" data-original="#000000" class=""></path><path d="m4.03 6.998c-.553 0-1.005-.447-1.005-1s.442-1 .994-1h.011c.552 0 1 .447 1 1s-.448 1-1 1z" fill="#000000" data-original="#000000" class=""></path><path d="m7.029 6.998c-.553 0-1.005-.447-1.005-1s.442-1 .994-1h.011c.552 0 1 .447 1 1s-.448 1-1 1z" fill="#000000" data-original="#000000" class=""></path><path d="m10.032 6.998c-.553 0-1.005-.447-1.005-1s.442-1 .994-1h.011c.552 0 1 .447 1 1s-.448 1-1 1z" fill="#000000" data-original="#000000" class=""></path><path d="m1 61.002c-.553 0-1-.447-1-1v-54.004c0-.553.447-1 1-1s1 .447 1 1v54.004c0 .553-.447 1-1 1z" fill="#000000" data-original="#000000" class=""></path><path d="m63 61.002c-.553 0-1-.447-1-1v-54.004c0-.553.447-1 1-1s1 .447 1 1v54.004c0 .553-.447 1-1 1z" fill="#000000" data-original="#000000" class=""></path><path d="m63 8.998h-62c-.553 0-1-.447-1-1s.447-1 1-1h62c.553 0 1 .447 1 1s-.447 1-1 1z" fill="#000000" data-original="#000000" class=""></path><path d="m63 61.002h-62c-.553 0-1-.447-1-1s.447-1 1-1h62c.553 0 1 .447 1 1s-.447 1-1 1z" fill="#000000" data-original="#000000" class=""></path><path d="m30.001 37h-25c-.553 0-1-.447-1-1v-15.994c0-.553.447-1 1-1h25c.553 0 1 .447 1 1v15.994c0 .553-.447 1-1 1zm-24-2h23v-13.994h-23z" fill="#000000" data-original="#000000" class=""></path><path d="m13 29.006c-1.654 0-3.001-1.346-3.001-3 0-1.655 1.347-3.002 3.001-3.002s3.001 1.347 3.001 3.002c0 1.654-1.347 3-3.001 3zm0-4.002c-.552 0-1.001.449-1.001 1.002 0 .552.449 1 1.001 1s1.001-.448 1.001-1c0-.553-.449-1.002-1.001-1.002z" fill="#000000" data-original="#000000" class=""></path><path d="m23.998 27.006h-8.997c-.553 0-1-.447-1-1s.447-1 1-1h8.997c.553 0 1 .447 1 1s-.447 1-1 1z" fill="#000000" data-original="#000000" class=""></path><path d="m23.998 29.006c-.553 0-1-.447-1-1v-2c0-.553.447-1 1-1s1 .447 1 1v2c0 .553-.447 1-1 1z" fill="#000000" data-original="#000000" class=""></path><path d="m20.998 29.006c-.553 0-1-.447-1-1v-2c0-.553.447-1 1-1s1 .447 1 1v2c0 .553-.447 1-1 1z" fill="#000000" data-original="#000000" class=""></path><path d="m23.998 33.012h-12.999c-.553 0-1-.447-1-1s.447-1 1-1h12.999c.553 0 1 .447 1 1s-.447 1-1 1z" fill="#000000" data-original="#000000" class=""></path><path d="m58.999 37h-25c-.553 0-1-.447-1-1v-15.994c0-.553.447-1 1-1h25c.553 0 1 .447 1 1v15.994c0 .553-.447 1-1 1zm-24-2h23v-13.994h-23z" fill="#000000" data-original="#000000" class=""></path><path d="m41.998 29.006c-1.654 0-3.001-1.346-3.001-3 0-1.655 1.347-3.002 3.001-3.002s3.001 1.347 3.001 3.002c0 1.654-1.347 3-3.001 3zm0-4.002c-.552 0-1.001.449-1.001 1.002 0 .552.449 1 1.001 1s1.001-.448 1.001-1c0-.553-.449-1.002-1.001-1.002z" fill="#000000" data-original="#000000" class=""></path><path d="m52.996 27.006h-8.997c-.553 0-1-.447-1-1s.447-1 1-1h8.997c.553 0 1 .447 1 1s-.447 1-1 1z" fill="#000000" data-original="#000000" class=""></path><path d="m52.996 29.006c-.553 0-1-.447-1-1v-2c0-.553.447-1 1-1s1 .447 1 1v2c0 .553-.447 1-1 1z" fill="#000000" data-original="#000000" class=""></path><path d="m49.996 29.006c-.553 0-1-.447-1-1v-2c0-.553.447-1 1-1s1 .447 1 1v2c0 .553-.447 1-1 1z" fill="#000000" data-original="#000000" class=""></path><path d="m52.996 33.012h-12.999c-.553 0-1-.447-1-1s.447-1 1-1h12.999c.553 0 1 .447 1 1s-.447 1-1 1z" fill="#000000" data-original="#000000" class=""></path><path d="m30.001 56.996h-25c-.553 0-1-.447-1-1v-15.994c0-.553.447-1 1-1h25c.553 0 1 .447 1 1v15.994c0 .553-.447 1-1 1zm-24-2h23v-13.994h-23z" fill="#000000" data-original="#000000" class=""></path><path d="m13 49.002c-1.654 0-3.001-1.346-3.001-3 0-1.655 1.347-3.002 3.001-3.002s3.001 1.347 3.001 3.002c0 1.654-1.347 3-3.001 3zm0-4.002c-.552 0-1.001.449-1.001 1.002 0 .552.449 1 1.001 1s1.001-.448 1.001-1c0-.553-.449-1.002-1.001-1.002z" fill="#000000" data-original="#000000" class=""></path><path d="m23.998 47.002h-8.997c-.553 0-1-.447-1-1s.447-1 1-1h8.997c.553 0 1 .447 1 1s-.447 1-1 1z" fill="#000000" data-original="#000000" class=""></path><path d="m23.998 49.002c-.553 0-1-.447-1-1v-2c0-.553.447-1 1-1s1 .447 1 1v2c0 .553-.447 1-1 1z" fill="#000000" data-original="#000000" class=""></path><path d="m20.998 49.002c-.553 0-1-.447-1-1v-2c0-.553.447-1 1-1s1 .447 1 1v2c0 .553-.447 1-1 1z" fill="#000000" data-original="#000000" class=""></path><path d="m23.998 53.008h-12.999c-.553 0-1-.447-1-1s.447-1 1-1h12.999c.553 0 1 .447 1 1s-.447 1-1 1z" fill="#000000" data-original="#000000" class=""></path><path d="m58.999 56.996h-25c-.553 0-1-.447-1-1v-15.994c0-.553.447-1 1-1h25c.553 0 1 .447 1 1v15.994c0 .553-.447 1-1 1zm-24-2h23v-13.994h-23z" fill="#000000" data-original="#000000" class=""></path><path d="m41.998 49.002c-1.654 0-3.001-1.346-3.001-3 0-1.655 1.347-3.002 3.001-3.002s3.001 1.347 3.001 3.002c0 1.654-1.347 3-3.001 3zm0-4.002c-.552 0-1.001.449-1.001 1.002 0 .552.449 1 1.001 1s1.001-.448 1.001-1c0-.553-.449-1.002-1.001-1.002z" fill="#000000" data-original="#000000" class=""></path><path d="m52.996 47.002h-8.997c-.553 0-1-.447-1-1s.447-1 1-1h8.997c.553 0 1 .447 1 1s-.447 1-1 1z" fill="#000000" data-original="#000000" class=""></path><path d="m52.996 49.002c-.553 0-1-.447-1-1v-2c0-.553.447-1 1-1s1 .447 1 1v2c0 .553-.447 1-1 1z" fill="#000000" data-original="#000000" class=""></path><path d="m49.996 49.002c-.553 0-1-.447-1-1v-2c0-.553.447-1 1-1s1 .447 1 1v2c0 .553-.447 1-1 1z" fill="#000000" data-original="#000000" class=""></path><path d="m52.996 53.008h-12.999c-.553 0-1-.447-1-1s.447-1 1-1h12.999c.553 0 1 .447 1 1s-.447 1-1 1z" fill="#000000" data-original="#000000" class=""></path><path d="m59.001 16.998h-54.005c-.553 0-1-.447-1-1v-4.002c0-.553.447-1 1-1h54.005c.553 0 1 .447 1 1v4.002c0 .553-.447 1-1 1zm-53.005-2h52.005v-2.002h-52.005z" fill="#000000" data-original="#000000" class=""></path><path d="m55 16.998c-.553 0-1-.447-1-1v-4.002c0-.553.447-1 1-1s1 .447 1 1v4.002c0 .553-.447 1-1 1z" fill="#000000" data-original="#000000" class=""></path></g></svg>