<svg width="24" height="24" viewBox="0 0 24 24" fill="none" xmlns="http://www.w3.org/2000/svg">
<path d="M3 17H21C21.55 17 22 17.45 22 18C22 18.55 21.55 19 21 19H3C2.45 19 2 18.55 2 18C2 17.45 2.45 17 3 17ZM2.5 12.57C2.86 12.78 3.32 12.65 3.53 12.29L4 11.47L4.48 12.3C4.69 12.66 5.15 12.78 5.51 12.58C5.87 12.37 5.99 11.92 5.79 11.56L5.3 10.72H6.25C6.66 10.72 7 10.38 7 9.97004C7 9.56004 6.66 9.22004 6.25 9.22004H5.3L5.77 8.40004C5.98 8.04004 5.86 7.58004 5.5 7.37004C5.32574 7.27304 5.12045 7.24803 4.92799 7.30034C4.73554 7.35266 4.57117 7.47817 4.47 7.65004L4 8.47004L3.53 7.65004C3.42883 7.47817 3.26446 7.35266 3.07201 7.30034C2.87955 7.24803 2.67426 7.27304 2.5 7.37004C2.14 7.58004 2.02 8.04004 2.23 8.40004L2.7 9.22004H1.75C1.34 9.22004 1 9.56004 1 9.97004C1 10.38 1.34 10.72 1.75 10.72H2.7L2.22 11.55C2.02 11.91 2.14 12.37 2.5 12.57ZM10.5 12.57C10.86 12.78 11.32 12.65 11.53 12.29L12 11.47L12.48 12.3C12.69 12.66 13.15 12.78 13.51 12.58C13.87 12.37 13.99 11.92 13.79 11.56L13.31 10.73H14.26C14.67 10.73 15.01 10.39 15.01 9.98004C15.01 9.57004 14.67 9.23004 14.26 9.23004H13.3L13.77 8.41004C13.8689 8.23721 13.896 8.03247 13.8455 7.83986C13.795 7.64724 13.671 7.48213 13.5 7.38004C13.4153 7.33079 13.3217 7.2987 13.2246 7.28561C13.1275 7.27252 13.0288 7.27869 12.9341 7.30376C12.8394 7.32883 12.7505 7.37232 12.6726 7.43173C12.5947 7.49115 12.5292 7.56533 12.48 7.65004L12 8.47004L11.53 7.65004C11.4811 7.56494 11.4159 7.49037 11.338 7.43065C11.2602 7.37093 11.1712 7.32725 11.0764 7.30214C10.9815 7.27703 10.8826 7.27099 10.7854 7.28436C10.6882 7.29773 10.5946 7.33025 10.51 7.38004C10.15 7.59004 10.03 8.05004 10.24 8.41004L10.71 9.23004H9.75C9.65198 9.22872 9.55468 9.24688 9.46374 9.28348C9.3728 9.32007 9.29004 9.37437 9.22026 9.44322C9.15049 9.51206 9.09508 9.59409 9.05727 9.68453C9.01946 9.77497 8.99999 9.87202 9 9.97004C9 10.38 9.34 10.72 9.75 10.72H10.7L10.22 11.55C10.02 11.91 10.14 12.37 10.5 12.57ZM23 9.97004C23 9.56004 22.66 9.22004 22.25 9.22004H21.3L21.77 8.40004C21.8689 8.22721 21.896 8.02247 21.8455 7.82986C21.795 7.63724 21.671 7.47213 21.5 7.37004C21.4153 7.32079 21.3217 7.2887 21.2246 7.27561C21.1275 7.26252 21.0288 7.26869 20.9341 7.29376C20.8394 7.31883 20.7505 7.36232 20.6726 7.42173C20.5947 7.48115 20.5292 7.55533 20.48 7.64004L20 8.47004L19.53 7.65004C19.4811 7.56494 19.4159 7.49037 19.338 7.43065C19.2602 7.37093 19.1712 7.32725 19.0764 7.30214C18.9815 7.27703 18.8826 7.27099 18.7854 7.28436C18.6882 7.29773 18.5946 7.33025 18.51 7.38004C18.15 7.59004 18.03 8.05004 18.24 8.41004L18.71 9.23004H17.76C17.6613 9.22778 17.5631 9.24523 17.4711 9.28137C17.3792 9.31751 17.2954 9.37161 17.2247 9.44051C17.1539 9.50941 17.0976 9.59173 17.059 9.68265C17.0204 9.77358 17.0004 9.87128 17 9.97004C17 10.38 17.34 10.72 17.75 10.72H18.7L18.22 11.55C18.1703 11.6351 18.1382 11.7293 18.1254 11.827C18.1126 11.9247 18.1194 12.0239 18.1455 12.1189C18.1716 12.2139 18.2164 12.3028 18.2773 12.3802C18.3381 12.4577 18.4139 12.5222 18.5 12.57C18.86 12.78 19.32 12.65 19.53 12.29L20 11.47L20.48 12.3C20.69 12.66 21.15 12.78 21.51 12.58C21.87 12.37 21.99 11.92 21.79 11.56L21.31 10.73H22.26C22.66 10.72 23 10.38 23 9.97004Z" fill="#FF6464"/>
</svg>
